<svg xmlns="http://www.w3.org/2000/svg" xmlns:xlink="http://www.w3.org/1999/xlink" viewBox="0 0 500 500"><defs><style>.cls-1{isolation:isolate;}.cls-2{fill:#f9fbfc;}.cls-3{fill:#dae8ef;}.cls-4{fill:#ccd9e2;}.cls-5{fill:#bcced8;}.cls-6{fill:#112b46;}.cls-26,.cls-7{mix-blend-mode:screen;}.cls-8{fill:#1d262d;}.cls-9{fill:#606bf1;}.cls-10{fill:#fbd15b;}.cls-11{fill:#ff8578;}.cls-12{fill:#f1f2f2;}.cls-13{fill:url(#radial-gradient);}.cls-14{fill:url(#radial-gradient-2);}.cls-15{fill:#f7b094;}.cls-16{fill:#3d3d7a;}.cls-17{fill:#0a2033;}.cls-18{fill:#30475e;}.cls-19{fill:url(#radial-gradient-3);}.cls-20{fill:#56548c;}.cls-21{fill:url(#radial-gradient-4);}.cls-22{fill:#f4675d;}.cls-23{fill:url(#radial-gradient-5);}.cls-24{fill:#e8987c;}.cls-25{fill:url(#radial-gradient-6);}.cls-26{fill:#6d4b35;}.cls-27{fill:#abb5ba;}.cls-28{fill:#8495a0;}.cls-29{fill:none;}.cls-30{fill:#141b56;}.cls-31{fill:#a5b7c6;}.cls-32{fill:url(#linear-gradient);}.cls-33{fill:#747ded;}.cls-34{fill:url(#linear-gradient-2);}.cls-35{fill:url(#linear-gradient-3);}.cls-36{fill:#95a8b5;}</style><radialGradient id="radial-gradient" cx="277.52" cy="192.38" r="12.93" gradientUnits="userSpaceOnUse"><stop offset="0" stop-color="#ffc8af"/><stop offset="1" stop-color="#ffbb9c"/></radialGradient><radialGradient id="radial-gradient-2" cx="279.6" cy="169.19" r="20.38" gradientTransform="translate(-38.91 62.44) rotate(-12.15)" xlink:href="#radial-gradient"/><radialGradient id="radial-gradient-3" cx="249.96" cy="387.55" r="8.13" xlink:href="#radial-gradient"/><radialGradient id="radial-gradient-4" cx="198.5" cy="389.59" r="7.4" xlink:href="#radial-gradient"/><radialGradient id="radial-gradient-5" cx="243.56" cy="250.7" r="41.44" xlink:href="#radial-gradient"/><radialGradient id="radial-gradient-6" cx="243.56" cy="250.7" r="41.44" xlink:href="#radial-gradient"/><linearGradient id="linear-gradient" x1="489.92" y1="93.59" x2="450.58" y2="143.18" gradientTransform="matrix(0.78, -0.62, 0.62, 0.78, -58.1, 529.94)" gradientUnits="userSpaceOnUse"><stop offset="0" stop-color="#606bf1"/><stop offset="1" stop-color="#58479f"/></linearGradient><linearGradient id="linear-gradient-2" x1="592.93" y1="-19.93" x2="553.59" y2="29.66" gradientTransform="matrix(0.45, -0.89, 0.89, 0.45, 85.91, 842.98)" xlink:href="#linear-gradient"/><linearGradient id="linear-gradient-3" x1="552.57" y1="16.14" x2="503.89" y2="77.51" gradientTransform="translate(6.19 714.34) rotate(-52.61)" xlink:href="#linear-gradient"/></defs><title>hero</title><g class="cls-1"><g id="BACKGROUND"><rect class="cls-2" width="500" height="500"/><path class="cls-3" d="M465.68,304.58,449.91,415.29H49L37.16,330.84a21,21,0,0,1,12.74-22.3l35.58-14.77V258.38a21,21,0,0,1,17.95-20.77l8.41-1.23L126,188.59a21,21,0,0,1,20.12-15H290.66A21,21,0,0,1,311.58,193l68.84,7.27a21,21,0,0,1,18.75,19.64L402,267.69l48.64,13.74A21,21,0,0,1,465.68,304.58Z"/><path class="cls-4" d="M73,327.42l12.52,87.88H403.78l9.4-67a16.68,16.68,0,0,0-10.11-17.7l-28.24-11.72V290.74a16.64,16.64,0,0,0-14.25-16.48l-6.68-1-11.22-37.93a16.65,16.65,0,0,0-16-11.93H212a16.64,16.64,0,0,0-16.61,15.45l-54.64,5.77a16.67,16.67,0,0,0-14.89,15.59l-2.21,37.9L85,309A16.66,16.66,0,0,0,73,327.42Z"/><path class="cls-5" d="M335.57,382.55a19,19,0,0,0-16.31-18.87l-7.64-1.12-12.84-43.41a19.05,19.05,0,0,0-18.28-13.66H149.18a19,19,0,0,0-19,17.68l-56.86,6,12.26,86.12H337l-1.44-.6Z"/></g><g id="OBJECTS"><rect class="cls-6" x="120.23" y="99.12" width="97.55" height="91.05"/><g class="cls-7"><rect class="cls-8" x="120.23" y="99.12" width="97.55" height="9.63"/></g><circle class="cls-9" cx="194.93" cy="104.04" r="1.77"/><circle class="cls-10" cx="202.3" cy="104.04" r="1.77"/><circle class="cls-11" cx="209.15" cy="104.23" r="1.77"/><rect class="cls-11" x="137.58" y="117.7" width="13.82" height="1.16"/><rect class="cls-10" x="153.8" y="117.7" width="13.82" height="1.16"/><rect class="cls-9" x="141.85" y="123.96" width="21.43" height="1.16"/><rect class="cls-11" x="166.82" y="123.96" width="10.89" height="1.16"/><rect class="cls-10" x="149.28" y="130.21" width="9.41" height="1.16"/><rect class="cls-10" x="164.13" y="130.21" width="31.22" height="1.16"/><rect class="cls-9" x="156.59" y="136.47" width="35.68" height="1.16"/><rect class="cls-11" x="147.67" y="142.72" width="10.98" height="1.16"/><rect class="cls-9" x="163.35" y="142.72" width="10.98" height="1.16"/><rect class="cls-11" x="137.58" y="175.18" width="15.97" height="1.16"/><rect class="cls-10" x="159.15" y="175.18" width="15.97" height="1.16"/><rect class="cls-11" x="180.13" y="175.18" width="15.97" height="1.16"/><rect class="cls-9" x="141.85" y="168.92" width="31.22" height="1.16"/><rect class="cls-11" x="177.94" y="168.92" width="31.22" height="1.16"/><rect class="cls-11" x="149.28" y="162.67" width="30.98" height="1.16"/><rect class="cls-10" x="182.96" y="162.67" width="8.62" height="1.16"/><rect class="cls-10" x="147.26" y="156.41" width="11.66" height="1.16"/><rect class="cls-9" x="165.12" y="156.41" width="11.66" height="1.16"/><rect class="cls-11" x="184.28" y="156.41" width="11.66" height="1.16"/><rect class="cls-10" x="160.78" y="150.16" width="16.35" height="1.16"/><rect class="cls-9" x="138.26" y="150.16" width="16.35" height="1.16"/><rect class="cls-2" x="128.54" y="116.58" width="1.49" height="1.49"/><path class="cls-2" d="M130,171.13h-1.49v-3H130Zm0-7.58h-1.49v-3H130Zm0-7.58h-1.49v-3H130Zm0-7.58h-1.49v-3H130Zm0-7.58h-1.49v-3H130Zm0-7.58h-1.49v-3H130Zm0-7.58h-1.49v-3H130Z"/><rect class="cls-2" x="128.54" y="175.67" width="1.49" height="1.49"/><rect class="cls-11" x="238.78" y="79.77" width="80.33" height="49.52"/><path class="cls-2" d="M270,99.69l-9.56,4.08,9.56,4-1.25,2.89-11.46-5.12V102l11.46-5.15Z"/><path class="cls-2" d="M284.06,90.25l-6.94,26.65-3.3-.77,7-26.62Z"/><path class="cls-2" d="M300.65,102v3.54l-11.46,5.12-1.25-2.89,9.53-4-9.53-4.08,1.25-2.83Z"/><rect class="cls-9" x="316.35" y="175.7" width="45.75" height="32.6"/><path class="cls-12" d="M335.49,182.74c-1.47,0-2,.4-2,1.5v4.91c0,1.92-.79,2.5-2.13,2.87,1.33.35,2.13.93,2.13,2.83v4.91c0,1.1.51,1.5,2,1.5v2.15c-3.71,0-4.77-1.19-4.77-3.67v-4.65c0-1.33-.35-1.85-1.56-1.85v-2.45c1.21,0,1.56-.54,1.56-1.87v-4.65c0-2.5,1.05-3.67,4.77-3.67Z"/><path class="cls-12" d="M347.73,184.26v4.65c0,1.33.35,1.87,1.59,1.87v2.45c-1.24,0-1.59.51-1.59,1.85v4.65c0,2.48-1.05,3.67-4.77,3.67v-2.15c1.45,0,2-.4,2-1.5v-4.91c0-1.89.79-2.48,2.13-2.83-1.33-.37-2.13-1-2.13-2.87v-4.91c0-1.1-.49-1.5-2-1.5v-2.15C346.68,180.59,347.73,181.76,347.73,184.26Z"/><rect class="cls-10" x="89.18" y="86.88" width="51.33" height="34.33"/><path class="cls-2" d="M106.17,96.73A8.42,8.42,0,0,0,117.44,109l5.39,5.39a.58.58,0,0,0,.82,0l1.51-1.51a.58.58,0,0,0,0-.82l-5.39-5.39a8.43,8.43,0,0,0-13.61-9.91ZM117,106.18a6,6,0,1,1,0-8.42A6,6,0,0,1,117,106.18Z"/><path class="cls-13" d="M289.83,192.92c-.11,1.13-1.66,13-13.84,13-12.78,0-10.64-12.65-10.64-12.65l0-.08a12.76,12.76,0,0,1,4-.19v-6l14.51-8.12h.53v14A26.4,26.4,0,0,1,289.83,192.92Z"/><g id="_Group_" data-name="&lt;Group&gt;"><path class="cls-14" d="M282.78,152.12a16.58,16.58,0,0,1,4.36,8.08c1.39,6.15.08,12.65-1.7,18.57a9.34,9.34,0,0,1-1.28,2.89,10.26,10.26,0,0,1-1.59,1.61L274.84,190c-1.75,1.53-12.49,2.8-14.54,1.33-7.9-5.65-9.42-22-7.84-30.39C255.08,147.08,272.92,142.12,282.78,152.12Z"/></g><path class="cls-15" d="M278.34,169.88c.11-1.34,1.48-2.8,2.86-1.93s1.09,3.27.5,4.58c-.46,1-2,2.15-3.07,1.19-.88-.8.49-1.74.53-2.47s-1.27-1.13-.73-1.83"/><path class="cls-15" d="M278.59,176.06a4.08,4.08,0,0,0,4.5-2.67,15.36,15.36,0,0,0,.55-4.3,10.29,10.29,0,0,1,.35,4.74c-.37,2.92-1.4,5.7-3.69,5.74S278.59,176.06,278.59,176.06Z"/><path class="cls-16" d="M276.83,174l-.16,0c-.89.12-1.25-1-1.38-1.63a29.93,29.93,0,0,1-.32-4.77,3.61,3.61,0,0,0-.14-1.27c-.5-1.15-1.84-1.89-2.24-3.08-.47-1.38.86-2.75.33-4.26-.81-2.31-3.78-2.84-5.93-2.82a67.36,67.36,0,0,0-9.54,1.13c-3.35.52-7.64,1-10.6-1.11-3.56-2.56-5.05-9.22-2.39-12.87a8.63,8.63,0,0,1,6.61-3.1c2.55-.06,4.71,1.46,7.05,2.23,1.87.61,3.67-1.17,5.41-1.52,2.19-.44,3.12,2,5.06,2s3.73-1.41,5.56-1.74c3.65-.67,3.44,3,5.88,4.25,1.52.78,3.49.31,5,1.1,1.17.6,1.33,1.66,1.59,2.85a27.87,27.87,0,0,0,.57,3.21,7.26,7.26,0,0,0,1.63,2.13,7.84,7.84,0,0,1,1.36,2.58,16.09,16.09,0,0,1,.67,6.56,44.53,44.53,0,0,1-2.74,10.79c-.8,2.25-1.1,4.6-2.32,6.73-.33.57-1.8,2.25-2.34,1a1.83,1.83,0,0,1-.08-.86c.16-2.32,2.32-17.29-3.34-15.49a4,4,0,0,0-2.43,2.5,9.72,9.72,0,0,0-.5,4.14c0,.2,0,.41,0,.61A.7.7,0,0,1,276.83,174Z"/><path class="cls-15" d="M269.34,191.6c6.45-1,10.7-6.13,10.7-6.13a11.75,11.75,0,0,1-11.09,9Z"/><path class="cls-17" d="M281.55,308.57h6a1.63,1.63,0,0,1,1.63,1.63v88.53a0,0,0,0,1,0,0h-9.23a0,0,0,0,1,0,0V310.2A1.63,1.63,0,0,1,281.55,308.57Z" transform="translate(569.07 707.29) rotate(180)"/><path class="cls-18" d="M265.48,309.84h38.11a6.31,6.31,0,0,1,6.31,6.31v1.39a0,0,0,0,1,0,0H259.17a0,0,0,0,1,0,0v-1.39A6.31,6.31,0,0,1,265.48,309.84Z" transform="translate(569.07 627.37) rotate(180)"/><path class="cls-17" d="M281.55,388.23h6a1.63,1.63,0,0,1,1.63,1.63v20.51a0,0,0,0,1,0,0h-9.23a0,0,0,0,1,0,0V389.85A1.63,1.63,0,0,1,281.55,388.23Z" transform="translate(569.07 798.59) rotate(180)"/><circle class="cls-17" cx="242.06" cy="404.97" r="5.4"/><circle class="cls-17" cx="327.02" cy="404.97" r="5.4"/><rect class="cls-18" x="275.26" y="381.35" width="18.56" height="16.22" transform="translate(569.07 778.92) rotate(180)"/><path class="cls-10" d="M236.66,393.75h95.76a0,0,0,0,1,0,0v1.88a5.75,5.75,0,0,1-5.75,5.75H242.41a5.75,5.75,0,0,1-5.75-5.75v-1.88A0,0,0,0,1,236.66,393.75Z" transform="translate(569.07 795.14) rotate(180)"/><rect class="cls-18" x="281.34" y="319.35" width="3.2" height="60.55"/><path class="cls-10" d="M320.79,244.4a3.76,3.76,0,0,0-3.89,4c.63,11-1.7,37.8-11.93,46.95-12.52,11.18-48,9.66-48,9.66s-5.86,7.19,5.86,8.79,44.74.53,52.72-6.92c7.73-7.22,12.32-26.13,8.86-59a3.79,3.79,0,0,0-3.64-3.41Z"/><g id="_Group_2" data-name="&lt;Group&gt;"><polygon class="cls-19" points="254.32 379.9 258.54 389.52 245.62 395.19 241.38 385.54 254.32 379.9"/><path class="cls-20" d="M315.28,273c-.8,1.6-58.23,0-63.65.53,0,0-35.15,16.78-40.2,32.48a17.16,17.16,0,0,0-.5,6.17c1.41,22.11,26.59,75.06,26.59,75.06l3.87-1.69,12.94-5.64,1.84-.8s-20-59.51-16-62.71,49.26-11.18,65-15.43S315.28,273,315.28,273Z"/><polygon class="cls-21" points="205.05 382.38 206.06 396.83 191.95 396.83 190.94 382.35 205.05 382.38"/><path class="cls-16" d="M251.34,273l-.51.22S192,281.52,182.4,298c-6.23,10.74,5.83,89.19,5.83,89.19l20.82,0s-3.11-65.35-2.08-69c1.17-4.15,3.16-5.66,4-6.09a17.16,17.16,0,0,1,.5-6.17c5-15.71,40.2-32.48,40.2-32.48A1,1,0,0,1,251.34,273Z"/><path class="cls-11" d="M308.17,218.66l-3.95.54a193,193,0,0,1-3.31,21.28l-49.16,18.66-.67,3.56-.61,0c0,.73,0,1.45,0,2.13.11,4.11.38,7.06.81,8.24a1,1,0,0,0,.29.5c1.34,1.09,18.72-1,37.52,5.88,16.3,6,25.44,12.52,25.86,11.65C320.14,280.4,310.81,238.6,308.17,218.66Z"/><path class="cls-22" d="M303,243c-1.31,6.29-4.7,18.82-11.34,20.5-8.68,2.2-25.45,2.09-41.17,1.25,0-.67,0-1.39,0-2.12l.61,0,.67-3.56,49.16-18.66a193,193,0,0,0,3.31-21.28,1.38,1.38,0,0,0,0,.18C304.34,221,305,233.74,303,243Z"/><path class="cls-22" d="M253.77,203c-.88,1.6-2.14,18.69-2.83,35.66l-10-9.38C245.15,221,253.77,203,253.77,203Z"/><path class="cls-15" d="M247.74,251c-8.48,1.47-16.28,2.73-16.28,2.73l0,.42c-9.44-7.54-23.81-28.9-23.81-28.9s4.3-5.16,5.37-6.52c.16-.21,23.58,15.91,24.78,15.77.3,0,1.5-2.14,3.1-5.27l10,9.38c-.16,4-.29,8.07-.37,11.89Z"/><path class="cls-23" d="M231.46,253.75l-.21,7H205.69s2.54-10,9.46-10,9.59,3.66,9.59,3.66Z"/><path class="cls-15" d="M212.82,218.58l.19.16c-1.07,1.36-5.37,6.52-5.37,6.52L205,223.37a6.63,6.63,0,0,1-6.36-.08c-3.56-1.93-1.36-6.55-1.18-7.1-.69.19-5,3.65-5.63,3.28s-1.17-1.58,3.61-6.29,11.25,1.34,11.44,1.34Z"/><path class="cls-15" d="M199.17,222.49s-1,1.93.8,2.77a18.23,18.23,0,0,0,6.92,1.3c1.53-.15,2.75-2.29,2.75-2.29L205,219.92H201.3Z"/><path class="cls-24" d="M198.89,223.44c.27-.95,2.91-.44,4.54-.4,1.2,0,1.86-.29,2.23-1.2s-1.37-2.37-1.72-1.92.63,1.1.66,1.71-1.72.81-3.06.81a32.71,32.71,0,0,0-3.66.35Z"/></g><path class="cls-25" d="M298.42,249.56l-25-8.87c-1.82,3.4-3.77,6-5.7,6.47-2.92.77-10,2.09-17.11,3.34l-2.83.51c-8.48,1.47-16.28,2.73-16.28,2.73l0,.42v.27l-.19,6.31v1.6a177,177,0,0,1,19.22.32c15,1.07,34.35,1.71,40.76-1.31,3-1.42,5.4-6.09,7.29-11.84Z"/><polygon class="cls-15" points="273.38 240.69 298.42 249.56 297.29 252.91 272.51 242.28 273.38 240.69"/><path class="cls-11" d="M273.39,240.69c-1.82,3.4-3.77,6-5.7,6.47-2.92.77-10,2.09-17.11,3.34.08-3.82.21-7.84.37-11.89.69-17,1.95-34.06,2.83-35.66,1.44-2.67,5.37-8.47,11.57-9.79l0,.08S263.21,205.9,276,205.9c12.17,0,13.72-11.84,13.84-13,6.26.7,15.87,3.83,17.19,16.42.27,2.49.66,5.69,1.15,9.31l-3.95.54s-1.6,17.73-5.7,30.31l-.1,0Z"/><polygon class="cls-26" points="273.13 238.39 283.12 214.19 275.76 239.36 273.13 238.39"/><path class="cls-11" d="M289.83,192.92h-5.45s-7.75,8.51-12.74,8.51-2.3-8.47-2.3-8.47h-2.43a13.74,13.74,0,0,0-13.65,12.19c-.09.8-.17,1.55-.24,2.23-.53,5.15,20.33,8.9,20.33,8.9l10.74-.6L290.61,203l1.3-5.21Z"/><g id="_Group_3" data-name="&lt;Group&gt;"><path class="cls-12" d="M224.08,406.26c.49,2.6,2.29,4.45,4.89,4l34.7-6.47a1.62,1.62,0,0,0,1.29-1.89l-.57-3.08s-36.5,6.39-40.33,7.45Z"/><path class="cls-16" d="M234.41,397.53l1.07-.94,2-1.82,1-.92,1.77-1.58,1.07-1,1.42-1.27a.78.78,0,0,1,1,0c1.43,1.2,6,3.94,14.39-1.23a.8.8,0,0,1,1.14.3l5.05,9.71s-36.5,6.39-40.33,7.45C225.33,405.46,230,401.43,234.41,397.53Z"/></g><g id="_Group_4" data-name="&lt;Group&gt;"><path class="cls-12" d="M169.43,405.92c.06,2.65,1.55,4.76,4.2,4.7l35.29-.86a1.62,1.62,0,0,0,1.58-1.66l-.08-3.13s-37,.49-41,.93Z"/><path class="cls-16" d="M181,398.94l1.21-.76,2.3-1.47,1.15-.74,2-1.28,1.21-.79,1.6-1a.78.78,0,0,1,1,.14c1.22,1.41,5.33,4.85,14.4,1.08a.8.8,0,0,1,1.07.47L210.42,405s-37,.49-41,.93C170.79,405.33,176,402.09,181,398.94Z"/></g><polygon class="cls-27" points="144.33 262.35 125.48 212.08 179.14 212.08 197.98 262.35 144.33 262.35"/><polygon class="cls-28" points="201.3 262.35 197.98 262.35 179.14 212.08 182.15 212.22 199.58 257.71 201.3 262.35"/><polyline class="cls-29" points="128.37 256.91 128.64 256.91 195.92 256.91"/><path class="cls-28" d="M200.26,262.35h35.45l-.1-3.17H199.53"/><rect class="cls-28" x="342.77" y="271.93" width="8.54" height="140.23"/><rect class="cls-27" x="296.43" y="271.93" width="8.54" height="140.23"/><rect class="cls-28" x="147.99" y="271.93" width="8.54" height="140.23"/><rect class="cls-27" x="101.66" y="271.93" width="8.54" height="140.23"/><rect class="cls-30" x="89.33" y="262.35" width="274.66" height="10.12" rx="4.15" ry="4.15"/><polygon class="cls-28" points="134.44 217.37 135.36 219.81 146.05 219.81 145.13 217.37 134.44 217.37"/><polygon class="cls-24" points="240.89 229.24 240.12 230.72 250.94 241.9 250.94 238.62 240.89 229.24"/><rect class="cls-31" x="29.74" y="410.36" width="431.92" height="9.86"/><path class="cls-32" d="M393.18,337.21C391.47,345.54,392,359.72,381,362c-3,.6-5.83-1.45-7.55-3.81-2.26-3.08-2.8-9.61-2.76-13.34,0-3,1-6.26,1.36-9.24.35-3.22.64-6.45,1-9.67,1.35-11.61,7.42-21.34,17.68-27.13.79,3.81,2.6,7,4.2,10.69a38,38,0,0,1,1.86,5.18c.84,3.1-.18,6.22-.93,9.19C394.73,328.21,394.1,332.78,393.18,337.21Z"/><path class="cls-33" d="M379.11,362.25q.12-1,.26-2.09a9,9,0,0,0,3.79-1.32,20.16,20.16,0,0,0,5-3.94c.08-.08-.06-.21-.14-.14a22.41,22.41,0,0,1-4.84,3.31,13.66,13.66,0,0,1-3.68,1.37q.17-1.25.38-2.5a10.46,10.46,0,0,0,3.79-1.76,43.35,43.35,0,0,0,5.43-4.14,0,0,0,0,0,0,0c-2.69,2-5.69,4.73-9.09,5.34.18-1,.37-2.08.59-3.11l0-.16c3.94-1,6.6-4.08,9.62-6.58,0,0,0-.12-.06-.08-3,2.31-5.76,4.94-9.43,6.06.32-1.47.65-2.94,1-4.41a21,21,0,0,0,8.9-6.31s0-.12-.07-.07a27.13,27.13,0,0,1-8.68,5.75c.33-1.45.66-2.91,1-4.36a32.6,32.6,0,0,0,4.59-2.22,12.54,12.54,0,0,0,3.57-3.62.07.07,0,0,0-.12-.08c-2,2.87-5,3.76-7.9,5.26q.42-2,.78-4.09c3.24-1.78,6.75-3.43,8.59-6.85,0,0,0-.07-.05,0-1.94,3.14-5.34,4.49-8.42,6.2,0-.24.08-.49.12-.73.2-1.27.38-2.54.57-3.81a31.09,31.09,0,0,0,5.31-2.89,10.11,10.11,0,0,0,3.23-2.75.07.07,0,0,0-.12-.08c-1.74,2.49-5.54,3.92-8.35,5.17l.55-3.86c3.12-1.89,6.78-2.93,8.7-6.33a.09.09,0,0,0-.15-.1c-2,3.1-5.48,4.06-8.46,5.82q.17-1.19.35-2.39c3.36-1.24,7.28-4.05,9.05-7.09a.15.15,0,0,0-.25-.16,18.88,18.88,0,0,1-8.7,6.63c.2-1.29.41-2.58.64-3.86a.37.37,0,0,0,.05-.11,19.3,19.3,0,0,0,4.31-2.31,11.78,11.78,0,0,0,4.05-3.69c.11-.18-.18-.34-.28-.16-1.49,2.67-5,4.45-8,5.47.09-.47.17-.94.26-1.4q.21-1,.42-2.1c1.2-.83,2.73-1.23,3.94-2.1a22.28,22.28,0,0,0,2.86-2.61c.09-.09,0-.24-.14-.15a18.92,18.92,0,0,1-4,3c-.83.44-1.77.7-2.58,1.18.23-1.14.47-2.29.69-3.43h.09a.21.21,0,0,0,.2-.06c1.63-.41,2.88-1.82,4-3a0,0,0,0,0,0,0,10.91,10.91,0,0,1-4,2.7h0l-.12,0q.27-1.4.5-2.8a.21.21,0,0,0,.19-.24,17.2,17.2,0,0,0,2.39-2,.06.06,0,0,0-.08-.09,14,14,0,0,1-2.39,1.69,57.72,57.72,0,0,0,.65-5.84c0-.18-.26-.18-.28,0-.17,1.89-.45,3.76-.77,5.62a17.38,17.38,0,0,1-2.46-3.76c0-.07-.14,0-.12,0a10.77,10.77,0,0,0,1.19,2.32,14.23,14.23,0,0,0,1.27,2q-.27,1.5-.58,3a5.51,5.51,0,0,1-3-1.18,5.46,5.46,0,0,1-1.85-3.76c0-.18-.3-.18-.28,0A6.22,6.22,0,0,0,384,311a5.85,5.85,0,0,0,3.45,1.68q-.36,1.72-.74,3.44a26.78,26.78,0,0,1-2.82-2.09,38.38,38.38,0,0,1-3.56-3.84c-.13-.13-.33.06-.21.19a40.38,40.38,0,0,0,3.32,3.73,19.06,19.06,0,0,0,3.18,2.42l0,.18,0,0a.18.18,0,0,0,0,.26c-.24,1.1-.48,2.2-.72,3.3l0,.21c-2.56-1.17-6.39-3.21-6.73-6.18a.2.2,0,1,0-.39.08c.76,3.36,4.45,4.85,7,6.69q-.38,1.87-.69,3.75a15.16,15.16,0,0,1-4.62-2.38c-1.26-1-3.05-2.22-3.62-3.77,0,0-.09,0-.07,0,.53,1.55,2.13,2.61,3.3,3.67a12.34,12.34,0,0,0,4.9,3,.34.34,0,0,0,0,.17q-.2,1.19-.38,2.38c-3.11-.24-7.46-2.6-9.05-5,0,0,0,0,0,0a10.21,10.21,0,0,0,4.57,3.76,12.62,12.62,0,0,0,4.43,1.6c-.22,1.47-.44,2.95-.66,4.42-1.35-.5-2.78-.74-4.12-1.28a10.19,10.19,0,0,1-4.67-4c-.07-.11-.25,0-.18.09,2.15,3.42,5.25,4.43,8.88,5.71q-.27,1.81-.57,3.62c-3-.57-6.81-2.38-8.32-5-.11-.19-.41,0-.3.16a9.64,9.64,0,0,0,4.25,3.54c1.2.61,2.86,1.61,4.29,1.72l0,.12c-.29,1.74-.64,3.46-1,5.18-3.32-.83-5.46-3.29-7.88-5.59-.17-.16-.43.08-.26.25,2.46,2.42,4.62,5,8,5.85q-.46,2.1-1,4.19a15.34,15.34,0,0,1-7.45-5.1c-.13-.16-.36.06-.23.22a16.5,16.5,0,0,0,7.56,5.42q-.55,2.24-1.13,4.48a11,11,0,0,1-6.93-4.56c0-.05-.14,0-.1.07,1.59,2.21,4,4.76,6.88,5l-.37,1.43-.23.87a16.49,16.49,0,0,1-6-2.91c-.05,0-.11,0-.06.08a15.72,15.72,0,0,0,6,3.26c-.24.89-.5,1.82-.76,2.75a12.23,12.23,0,0,0-1.66-.71,12,12,0,0,1-2.74-1.59c-.09-.05-.19.07-.1.13a12.45,12.45,0,0,0,2.37,1.6c.7.26,1.37.6,2,.9-1,3.72-1.88,7.67-1.4,11.24.11.79,1.43,1,1.64.16A63.74,63.74,0,0,0,379.11,362.25Z"/><path class="cls-34" d="M358.33,334.83c2,8.27,8.41,20.91-.62,27.59-2.43,1.8-5.9,1.15-8.46-.26-3.35-1.84-6.59-7.53-8.13-10.93-1.22-2.69-1.7-6.11-2.66-9-1-3.07-2.15-6.12-3.17-9.2C331.62,322,333,310.61,339.86,301c2.33,3.12,5.33,5.28,8.32,7.92a38,38,0,0,1,3.87,3.91c2.07,2.45,2.47,5.72,3,8.72C355.93,326,357.29,330.43,358.33,334.83Z"/><path class="cls-33" d="M356.13,363.47q-.34-1-.65-2a9,9,0,0,0,2.88-2.8,20.17,20.17,0,0,0,2.85-5.67c0-.11-.14-.17-.19-.07a22.42,22.42,0,0,1-3,5,13.66,13.66,0,0,1-2.76,2.79q-.37-1.21-.71-2.42a10.46,10.46,0,0,0,2.69-3.19,43.36,43.36,0,0,0,3.17-6,0,0,0,0,0,0,0c-1.61,2.91-3.16,6.69-6,8.68-.28-1-.54-2-.78-3.07l0-.16c3.15-2.56,4.26-6.49,5.94-10,0-.06-.06-.11-.09-.05-1.72,3.34-3.14,6.91-6,9.47-.33-1.47-.65-2.94-1-4.41a21,21,0,0,0,5.4-9.47.05.05,0,0,0-.09,0,27.13,27.13,0,0,1-5.45,8.88c-.31-1.46-.63-2.91-1-4.36a32.56,32.56,0,0,0,3.22-3.94,12.54,12.54,0,0,0,1.71-4.79.07.07,0,0,0-.14,0c-.6,3.44-2.95,5.52-4.94,8.11-.32-1.35-.65-2.7-1-4,2.18-3,4.67-6,4.89-9.83,0,0-.05,0-.06,0-.44,3.66-2.95,6.32-5,9.17-.07-.24-.13-.48-.2-.72-.36-1.24-.73-2.47-1.1-3.7a31.1,31.1,0,0,0,3.59-4.86,10.12,10.12,0,0,0,1.77-3.86.07.07,0,0,0-.14,0c-.52,3-3.36,5.89-5.38,8.21l-1.13-3.73c2-3,4.91-5.52,5.22-9.41a.09.09,0,0,0-.18,0c-.49,3.65-3.26,6-5.21,8.85q-.35-1.16-.69-2.31c2.53-2.54,4.89-6.75,5.21-10.25a.15.15,0,0,0-.3,0,18.88,18.88,0,0,1-5.09,9.68c-.36-1.25-.72-2.51-1.05-3.77a.36.36,0,0,0,0-.12,19.29,19.29,0,0,0,2.93-3.92,11.78,11.78,0,0,0,2.11-5.06.16.16,0,0,0-.32,0c-.23,3-2.69,6.17-4.92,8.33-.12-.46-.24-.92-.35-1.39q-.25-1-.5-2.08c.74-1.26,2-2.26,2.68-3.57a22.28,22.28,0,0,0,1.5-3.58.1.1,0,0,0-.19-.07,18.91,18.91,0,0,1-2.3,4.42c-.56.75-1.31,1.38-1.84,2.16-.27-1.14-.54-2.27-.82-3.4l0,0h0a.21.21,0,0,0,.15-.14c1.31-1.06,1.85-2.87,2.34-4.42a0,0,0,0,0-.06,0,10.91,10.91,0,0,1-2.49,4.14h0l-.11,0q-.35-1.38-.72-2.75a.21.21,0,0,0,.07-.3,17.19,17.19,0,0,0,1.3-2.87.06.06,0,0,0-.11,0,14,14,0,0,1-1.46,2.54,57.76,57.76,0,0,0-1.87-5.57c-.07-.17-.32-.05-.26.11.64,1.78,1.18,3.6,1.67,5.42a17.38,17.38,0,0,1-3.81-2.37c-.06-.05-.14,0-.09.08a10.76,10.76,0,0,0,2.06,1.6,14.23,14.23,0,0,0,2,1.32q.39,1.47.73,3a5.51,5.51,0,0,1-3.22.2,5.46,5.46,0,0,1-3.26-2.63c-.09-.16-.35,0-.25.12a6.22,6.22,0,0,0,3,2.64,5.85,5.85,0,0,0,3.84.07q.4,1.71.78,3.43a26.77,26.77,0,0,1-3.44-.71,38.38,38.38,0,0,1-4.85-2,.14.14,0,0,0-.11.26,40.36,40.36,0,0,0,4.58,2,19.07,19.07,0,0,0,3.91.86l0,.18,0,0a.18.18,0,0,0,.09.24c.24,1.1.49,2.2.74,3.29l.05.2c-2.82,0-7.15-.21-8.71-2.76-.15-.24-.5,0-.32.24,2.11,2.73,6.09,2.52,9.17,3.11q.45,1.85,1,3.69a15.16,15.16,0,0,1-5.19-.21c-1.57-.38-3.7-.72-4.87-1.89,0,0-.09,0-.05.06,1.13,1.18,3,1.47,4.54,1.93a12.34,12.34,0,0,0,5.71.66.35.35,0,0,0,.07.15q.33,1.16.66,2.32c-2.92,1.1-7.86.79-10.3-.67,0,0,0,0,0,0A10.21,10.21,0,0,0,342,331a12.63,12.63,0,0,0,4.7-.42c.42,1.43.84,2.86,1.27,4.28-1.44.11-2.83.5-4.27.58a10.19,10.19,0,0,1-5.91-1.63c-.11-.07-.23.09-.12.16,3.4,2.2,6.63,1.8,10.46,1.43q.52,1.76,1,3.52c-2.93.74-7.18.72-9.63-1-.18-.13-.39.14-.21.27a9.64,9.64,0,0,0,5.35,1.42c1.35,0,3.27.26,4.61-.25l0,.12c.47,1.7.88,3.41,1.27,5.12-3.36.64-6.34-.68-9.5-1.75-.22-.07-.35.26-.13.34,3.25,1.16,6.28,2.54,9.75,1.91q.47,2.1.89,4.21a15.34,15.34,0,0,1-8.91-1.48c-.19-.09-.3.2-.12.3a16.49,16.49,0,0,0,9.14,1.72q.45,2.26.87,4.53a11,11,0,0,1-8.21-1.21c-.06,0-.12.07-.06.11,2.37,1.33,5.63,2.63,8.36,1.66l.27,1.45.16.89a16.49,16.49,0,0,1-6.69-.09c-.06,0-.08.08,0,.1a15.72,15.72,0,0,0,6.79.44c.16.91.31,1.86.48,2.81a12.25,12.25,0,0,0-1.81.06,12,12,0,0,1-3.16-.28c-.1,0-.14.14,0,.16a12.45,12.45,0,0,0,2.82.45c.75-.06,1.49,0,2.24,0,.67,3.79,1.53,7.75,3.48,10.79.43.67,1.72.3,1.55-.55A63.75,63.75,0,0,0,356.13,363.47Z"/><path class="cls-35" d="M377.42,328.42c.47,10.51,5.39,27.37-7.15,33.4-3.38,1.62-7.44,0-10.22-2.28-3.64-3-6.27-10.68-7.35-15.17-.86-3.56-.65-7.82-1.16-11.5-.56-4-1.19-7.94-1.72-11.91-1.89-14.34,2.43-27.85,13-37.91,2.11,4.33,5.26,7.65,8.28,11.56a47,47,0,0,1,3.8,5.65c1.95,3.46,1.68,7.52,1.67,11.31C376.54,317.15,377.17,322.82,377.42,328.42Z"/><path class="cls-33" d="M368.12,362.72q-.18-1.29-.33-2.59a11.09,11.09,0,0,0,4.15-2.74,25,25,0,0,0,4.77-6.24c.07-.12-.13-.24-.21-.13a27.73,27.73,0,0,1-4.81,5.45,16.9,16.9,0,0,1-4,2.76q-.17-1.55-.3-3.11c1.59-.62,2.83-2.08,4-3.26a53.65,53.65,0,0,0,5.25-6.62,0,0,0,0,0,0,0c-2.63,3.16-5.39,7.4-9.28,9.16-.1-1.3-.18-2.61-.24-3.91v-.2c4.42-2.39,6.68-6.9,9.54-10.81,0-.06,0-.15-.09-.08-2.86,3.67-5.41,7.67-9.48,10.12-.07-1.87-.11-3.73-.16-5.59a26,26,0,0,0,8.76-10.27c0-.07-.07-.13-.11-.06-2.28,4-5.22,6.71-8.67,9.53,0-1.84-.09-3.69-.16-5.53,1.62-1.38,3.42-2.42,4.83-4a15.52,15.52,0,0,0,3.18-5.42.09.09,0,0,0-.17-.05c-1.52,4-4.86,6-7.89,8.71-.07-1.72-.17-3.43-.3-5.15,3.34-3.12,7.06-6.17,8.23-10.82,0,0-.06-.07-.07,0-1.38,4.35-5,7-8.23,10,0-.31,0-.61-.07-.92-.15-1.58-.31-3.17-.48-4.75a38.47,38.47,0,0,0,5.49-5.07,12.52,12.52,0,0,0,3-4.29.09.09,0,0,0-.16-.06c-1.33,3.51-5.45,6.39-8.45,8.73q-.26-2.4-.51-4.79c3.17-3.21,7.25-5.57,8.52-10.23a.11.11,0,0,0-.21-.07c-1.44,4.32-5.35,6.53-8.38,9.55q-.16-1.49-.3-3c3.66-2.5,7.5-7.07,8.71-11.26a.19.19,0,0,0-.35-.12,23.36,23.36,0,0,1-8.43,10.59c-.15-1.61-.29-3.21-.41-4.82a.46.46,0,0,0,0-.15,23.88,23.88,0,0,0,4.47-4.08,14.58,14.58,0,0,0,3.74-5.66c.08-.24-.32-.35-.38-.1-1,3.65-4.7,6.87-7.91,9,0-.59-.08-1.18-.11-1.77q-.07-1.32-.13-2.65c1.19-1.36,2.9-2.3,4.08-3.72a27.6,27.6,0,0,0,2.65-4,.12.12,0,0,0-.21-.13,23.4,23.4,0,0,1-3.82,4.84c-.86.78-1.92,1.37-2.73,2.2-.06-1.44-.13-2.88-.21-4.33l0,0h.05a.26.26,0,0,0,.22-.13c1.84-1,2.91-3.06,3.86-4.83a0,0,0,0,0-.06,0,13.5,13.5,0,0,1-4,4.46h-.17q-.1-1.76-.24-3.51a.27.27,0,0,0,.16-.35,21.28,21.28,0,0,0,2.25-3.18.07.07,0,0,0-.12-.08,17.3,17.3,0,0,1-2.36,2.75,71.46,71.46,0,0,0-1-7.2c0-.22-.37-.14-.34.08.37,2.32.61,4.64.78,7a21.5,21.5,0,0,1-4.09-3.76c-.06-.08-.18,0-.13.08a13.31,13.31,0,0,0,2.14,2.43,17.61,17.61,0,0,0,2.14,2.07c.09,1.25.15,2.51.21,3.77a6.82,6.82,0,0,1-4-.5,6.75,6.75,0,0,1-3.36-3.95c-.07-.21-.41-.12-.34.09a7.69,7.69,0,0,0,3,3.91,7.24,7.24,0,0,0,4.65,1q.09,2.18.16,4.36a33.12,33.12,0,0,1-4-1.66c-2.09-.95-3.53-2.35-5.44-3.53a.17.17,0,0,0-.19.29c1.79,1.15,3.16,2.53,5.11,3.47a23.59,23.59,0,0,0,4.55,1.94v.23l0,.05a.23.23,0,0,0,0,.32c0,1.39.09,2.78.14,4.17,0,.09,0,.17,0,.26-3.43-.63-8.64-1.91-9.95-5.38a.25.25,0,1,0-.44.22c1.93,3.81,6.82,4.47,10.43,5.9q.11,2.35.3,4.7a18.75,18.75,0,0,1-6.26-1.45c-1.82-.82-4.33-1.73-5.49-3.43,0-.05-.11,0-.08.06,1.1,1.7,3.35,2.49,5.07,3.4a15.27,15.27,0,0,0,6.79,2.13.43.43,0,0,0,0,.2q.13,1.49.27,3c-3.81.66-9.74-.86-12.37-3.2,0,0,0,0,0,0a12.63,12.63,0,0,0,6.62,3.12,15.62,15.62,0,0,0,5.81.58c.18,1.83.37,3.67.55,5.5-1.77-.19-3.56,0-5.33-.29a12.61,12.61,0,0,1-6.81-3.36c-.12-.11-.3.05-.18.17,3.62,3.46,7.64,3.72,12.39,4.16q.22,2.26.41,4.52c-3.74.22-8.9-.79-11.48-3.43-.19-.19-.5.09-.31.28a11.93,11.93,0,0,0,6.18,3c1.63.36,3.92,1.07,5.67.76v.15c.17,2.17.29,4.35.36,6.52-4.23,0-7.55-2.29-11.15-4.32-.25-.14-.49.23-.24.38,3.68,2.16,7,4.55,11.41,4.58q.09,2.66.11,5.32a19,19,0,0,1-10.49-3.86c-.2-.16-.41.18-.21.34a20.41,20.41,0,0,0,10.71,4.21c0,1.9,0,3.81,0,5.71-3.62.35-6.85-1.15-9.7-3.37-.07-.05-.16.06-.09.12,2.58,2.17,6.23,4.5,9.78,3.95q0,.91,0,1.82c0,.37,0,.74,0,1.12a20.41,20.41,0,0,1-8.11-1.66c-.07,0-.12.08,0,.11a19.46,19.46,0,0,0,8.15,2.11c0,1.15-.05,2.33-.07,3.53a15.16,15.16,0,0,0-2.21-.35,14.79,14.79,0,0,1-3.77-1.07c-.12,0-.2.14-.08.18a15.4,15.4,0,0,0,3.32,1.2c.92.1,1.82.31,2.73.46-.07,4.77.07,9.78,1.73,13.92.37.92,2,.77,2-.31C369.44,369.29,368.56,366,368.12,362.72Z"/><polygon class="cls-36" points="384.33 366.66 383.87 375.2 383.14 388.51 381.95 410.36 352.36 410.36 351.17 388.51 350.45 375.2 349.98 366.66 384.33 366.66"/><polygon class="cls-31" points="383.87 375.2 383.77 376.92 383.68 378.69 383.14 388.51 351.17 388.51 350.64 378.69 350.54 376.92 350.45 375.2 383.87 375.2"/><polygon class="cls-36" points="383.77 376.92 383.68 378.69 350.64 378.69 350.54 376.92 383.77 376.92"/></g></g></svg>